<svg xmlns="http://www.w3.org/2000/svg" viewBox="35.0 255.0 3731.0 1047.0" role="img" aria-label="paKITA">

<path fill="#b3bac6" d="M189 530Q218 492 268 466Q318 440 381 440L381 440Q453 440 512.5 475.5Q572 511 606 575Q640 639 640 722L640 722Q640 805 606 870.5Q572 936 512.5 972.5Q453 1009 381 1009L381 1009Q318 1009 269 983.5Q220 958 189 920L189 920L189 1262L75 1117.9L75 449L189 449L189 530M524 722Q524 665 500.5 623.5Q477 582 438.5 560.5Q400 539 356 539L356 539Q313 539 274.5 561Q236 583 212.5 625Q189 667 189 724L189 724Q189 781 212.5 823.5Q236 866 274.5 888Q313 910 356 910L356 910Q400 910 438.5 887.5Q477 865 500.5 822Q524 779 524 722L524 722M715 722Q715 639 749.5 575Q784 511 843.5 475.5Q903 440 975 440L975 440Q1040 440 1088.5 465.5Q1137 491 1166 529L1166 529L1166 449L1281 449L1281 1000L1166 1000L1166 918Q1137 957 1087 983Q1037 1009 973 1009L973 1009Q902 1009 843 972.5Q784 936 749.5 870.5Q715 805 715 722L715 722M1166 724Q1166 667 1142.5 625Q1119 583 1081 561Q1043 539 999 539L999 539Q955 539 917 560.5Q879 582 855.5 623.5Q832 665 832 722L832 722Q832 779 855.5 822Q879 865 917.5 887.5Q956 910 999 910L999 910Q1043 910 1081 888Q1119 866 1142.5 823.5Q1166 781 1166 724L1166 724"/>
<path fill="#48b384" d="M2096 1000L1859 1000L1638 691L1638 1000L1442 1000L1442 295L1638 295L1638 599L1857 295L2083 295L1824 637L2096 1000M2168 295L2364 295L2364 1000L2168 1000L2168 295M2437 295L3007 295L3007 451L2819 451L2819 1000L2623 1000L2623 451L2437 451L2437 295M2987 1000L3356.5 295L3726 1000L3504.7 1000L3356.5 717.2L3208.3 1000Z"/>
</svg>