<svg xmlns="http://www.w3.org/2000/svg" viewBox="16.0 255.0 3744.0 1053.0" role="img" aria-label="paKITA">
<defs><linearGradient id="au" gradientUnits="userSpaceOnUse"
  x1="56" y1="295" x2="3720" y2="1268">
  <stop offset="0" stop-color="#a97d2e"/>
  <stop offset="0.38" stop-color="#f3d27e"/>
  <stop offset="0.62" stop-color="#e3b95a"/>
  <stop offset="1" stop-color="#96702a"/>
</linearGradient></defs>

<path fill="url(#au)" d="M252 517Q275 478 317 455Q359 432 416 432L416 432Q483 432 537.5 467Q592 502 623.5 567Q655 632 655 719L655 719Q655 806 623.5 871.5Q592 937 537.5 972Q483 1007 416 1007L416 1007Q359 1007 317.5 984Q276 961 252 922L252 922L252 1268L56 1120.6L56 439L252 439L252 517M456 719Q456 664 426.5 633.5Q397 603 354 603L354 603Q311 603 281.5 634Q252 665 252 719L252 719Q252 774 281.5 805Q311 836 354 836L354 836Q397 836 426.5 804.5Q456 773 456 719L456 719M704 719Q704 632 735.5 567Q767 502 821.5 467Q876 432 943 432L943 432Q1001 432 1043 455Q1085 478 1108 517L1108 517L1108 439L1304 439L1304 1000L1108 1000L1108 922Q1085 961 1042.5 984Q1000 1007 943 1007L943 1007Q876 1007 821.5 972Q767 937 735.5 871.5Q704 806 704 719L704 719M1108 719Q1108 665 1078.5 634Q1049 603 1006 603L1006 603Q962 603 933 633.5Q904 664 904 719L904 719Q904 773 933 804.5Q962 836 1006 836L1006 836Q1049 836 1078.5 805Q1108 774 1108 719L1108 719"/>
<path fill="url(#au)" d="M2090 1000L1853 1000L1632 691L1632 1000L1436 1000L1436 295L1632 295L1632 599L1851 295L2077 295L1818 637L2090 1000M2162 295L2358 295L2358 1000L2162 1000L2162 295M2431 295L3001 295L3001 451L2813 451L2813 1000L2617 1000L2617 451L2431 451L2431 295M2981 1000L3350.5 295L3720 1000L3498.7 1000L3350.5 717.2L3202.3 1000Z"/>
</svg>